<mxfile host="app.diagrams.net" modified="2021-02-22T20:36:37.244Z" agent="5.0 (Windows NT 10.0; Win64; x64) AppleWebKit/537.36 (KHTML, like Gecko) Chrome/87.0.4280.141 Safari/537.36 OPR/73.0.3856.400" etag="EFeuzmJTaaSfpnfjQqkB" version="14.4.2" type="github">
  <diagram id="6i3p1AnyOVcttjgduYyh" name="Page-1">
    <mxGraphModel dx="1396" dy="783" grid="1" gridSize="10" guides="1" tooltips="1" connect="1" arrows="1" fold="1" page="1" pageScale="1" pageWidth="827" pageHeight="1169" math="0" shadow="0">
      <root>
        <mxCell id="0" />
        <mxCell id="1" parent="0" />
        <mxCell id="9iaTbcM6N0IRf_TchKTs-1" value="" style="ellipse;whiteSpace=wrap;html=1;" vertex="1" parent="1">
          <mxGeometry x="-70" y="70" width="120" height="80" as="geometry" />
        </mxCell>
        <mxCell id="9iaTbcM6N0IRf_TchKTs-8" value="" style="edgeStyle=orthogonalEdgeStyle;rounded=0;orthogonalLoop=1;jettySize=auto;html=1;" edge="1" parent="1" source="9iaTbcM6N0IRf_TchKTs-2" target="9iaTbcM6N0IRf_TchKTs-6">
          <mxGeometry relative="1" as="geometry" />
        </mxCell>
        <mxCell id="9iaTbcM6N0IRf_TchKTs-2" value="Начало" style="text;html=1;strokeColor=none;fillColor=none;align=center;verticalAlign=middle;whiteSpace=wrap;rounded=0;" vertex="1" parent="1">
          <mxGeometry x="-30" y="100" width="40" height="20" as="geometry" />
        </mxCell>
        <mxCell id="9iaTbcM6N0IRf_TchKTs-10" style="edgeStyle=orthogonalEdgeStyle;rounded=0;orthogonalLoop=1;jettySize=auto;html=1;entryX=0.667;entryY=0.017;entryDx=0;entryDy=0;entryPerimeter=0;" edge="1" parent="1" source="9iaTbcM6N0IRf_TchKTs-6" target="9iaTbcM6N0IRf_TchKTs-9">
          <mxGeometry relative="1" as="geometry" />
        </mxCell>
        <mxCell id="9iaTbcM6N0IRf_TchKTs-6" value="" style="shape=parallelogram;perimeter=parallelogramPerimeter;whiteSpace=wrap;html=1;fixedSize=1;" vertex="1" parent="1">
          <mxGeometry x="-75" y="270" width="130" height="70" as="geometry" />
        </mxCell>
        <mxCell id="9iaTbcM6N0IRf_TchKTs-7" value="Введите&amp;nbsp;&lt;br&gt;два числа" style="text;html=1;strokeColor=none;fillColor=none;align=center;verticalAlign=middle;whiteSpace=wrap;rounded=0;" vertex="1" parent="1">
          <mxGeometry x="-30" y="295" width="40" height="20" as="geometry" />
        </mxCell>
        <mxCell id="9iaTbcM6N0IRf_TchKTs-14" style="edgeStyle=orthogonalEdgeStyle;rounded=0;orthogonalLoop=1;jettySize=auto;html=1;entryX=0.5;entryY=0;entryDx=0;entryDy=0;" edge="1" parent="1" source="9iaTbcM6N0IRf_TchKTs-9" target="9iaTbcM6N0IRf_TchKTs-11">
          <mxGeometry relative="1" as="geometry" />
        </mxCell>
        <mxCell id="9iaTbcM6N0IRf_TchKTs-9" value="Ввод&lt;br&gt;a, b" style="shape=parallelogram;perimeter=parallelogramPerimeter;whiteSpace=wrap;html=1;fixedSize=1;" vertex="1" parent="1">
          <mxGeometry x="-90" y="420" width="120" height="60" as="geometry" />
        </mxCell>
        <mxCell id="9iaTbcM6N0IRf_TchKTs-24" style="edgeStyle=orthogonalEdgeStyle;rounded=0;orthogonalLoop=1;jettySize=auto;html=1;" edge="1" parent="1" source="9iaTbcM6N0IRf_TchKTs-11" target="9iaTbcM6N0IRf_TchKTs-23">
          <mxGeometry relative="1" as="geometry" />
        </mxCell>
        <mxCell id="9iaTbcM6N0IRf_TchKTs-25" style="edgeStyle=orthogonalEdgeStyle;rounded=0;orthogonalLoop=1;jettySize=auto;html=1;entryX=0.417;entryY=0;entryDx=0;entryDy=0;entryPerimeter=0;" edge="1" parent="1" source="9iaTbcM6N0IRf_TchKTs-11" target="9iaTbcM6N0IRf_TchKTs-22">
          <mxGeometry relative="1" as="geometry" />
        </mxCell>
        <mxCell id="9iaTbcM6N0IRf_TchKTs-11" value="b &amp;lt;&amp;gt; 0" style="rhombus;whiteSpace=wrap;html=1;" vertex="1" parent="1">
          <mxGeometry x="-80" y="545" width="80" height="80" as="geometry" />
        </mxCell>
        <mxCell id="9iaTbcM6N0IRf_TchKTs-12" value="YES" style="text;html=1;strokeColor=none;fillColor=none;align=center;verticalAlign=middle;whiteSpace=wrap;rounded=0;" vertex="1" parent="1">
          <mxGeometry x="-100" y="545" width="40" height="20" as="geometry" />
        </mxCell>
        <mxCell id="9iaTbcM6N0IRf_TchKTs-13" value="NO" style="text;html=1;align=center;verticalAlign=middle;resizable=0;points=[];autosize=1;" vertex="1" parent="1">
          <mxGeometry x="-20" y="545" width="30" height="20" as="geometry" />
        </mxCell>
        <mxCell id="9iaTbcM6N0IRf_TchKTs-27" style="edgeStyle=orthogonalEdgeStyle;rounded=0;orthogonalLoop=1;jettySize=auto;html=1;" edge="1" parent="1" source="9iaTbcM6N0IRf_TchKTs-22" target="9iaTbcM6N0IRf_TchKTs-26">
          <mxGeometry relative="1" as="geometry" />
        </mxCell>
        <mxCell id="9iaTbcM6N0IRf_TchKTs-22" value="" style="rounded=0;whiteSpace=wrap;html=1;" vertex="1" parent="1">
          <mxGeometry x="-240" y="660" width="120" height="60" as="geometry" />
        </mxCell>
        <mxCell id="9iaTbcM6N0IRf_TchKTs-28" style="edgeStyle=orthogonalEdgeStyle;rounded=0;orthogonalLoop=1;jettySize=auto;html=1;" edge="1" parent="1" source="9iaTbcM6N0IRf_TchKTs-23">
          <mxGeometry relative="1" as="geometry">
            <mxPoint x="-20" y="860" as="targetPoint" />
            <Array as="points">
              <mxPoint x="110" y="900" />
              <mxPoint x="-20" y="900" />
            </Array>
          </mxGeometry>
        </mxCell>
        <mxCell id="9iaTbcM6N0IRf_TchKTs-23" value="" style="rounded=0;whiteSpace=wrap;html=1;" vertex="1" parent="1">
          <mxGeometry x="55" y="690" width="120" height="60" as="geometry" />
        </mxCell>
        <mxCell id="9iaTbcM6N0IRf_TchKTs-26" value="Конец" style="ellipse;whiteSpace=wrap;html=1;" vertex="1" parent="1">
          <mxGeometry x="-80" y="880" width="120" height="80" as="geometry" />
        </mxCell>
      </root>
    </mxGraphModel>
  </diagram>
</mxfile>
